<svg width="700" height="299" viewBox="0 0 700 299" fill="none" xmlns="http://www.w3.org/2000/svg">
<path d="M133.369 37.0039L134.554 37.8737L135.747 38.7314L135.286 40.1266L134.839 41.5264L133.369 41.5189L131.9 41.5264L131.453 40.1266L130.992 38.7314L132.185 37.8737L133.369 37.0039Z" fill="#505050"/>
<path opacity="0.1" d="M60.6345 261.527L61.8189 260.658L63.0122 259.8L62.5509 258.405L62.104 257.005L60.6345 257.012L59.1651 257.005L58.7181 258.405L58.2569 259.8L59.4501 260.658L60.6345 261.527Z" fill="#505050"/>
<path d="M24.2668 37.0039L25.4512 37.8737L26.6445 38.7314L26.1832 40.1266L25.7363 41.5264L24.2668 41.5189L22.7974 41.5264L22.3505 40.1266L21.8892 38.7314L23.0825 37.8737L24.2668 37.0039Z" fill="#505050"/>
<path d="M697.133 13.0601L698.317 13.9299L699.511 14.7875L699.049 16.1827L698.603 17.5826L697.133 17.5751L695.664 17.5826L695.217 16.1827L694.755 14.7875L695.949 13.9299L697.133 13.0601Z" fill="#505050"/>
<path opacity="0.1" d="M624.398 285.471L625.583 284.601L626.776 283.744L626.315 282.349L625.868 280.949L624.398 280.956L622.929 280.949L622.482 282.349L622.021 283.744L623.214 284.601L624.398 285.471Z" fill="#505050"/>
<path d="M588.031 13.0601L589.215 13.9299L590.408 14.7875L589.947 16.1827L589.5 17.5826L588.031 17.5751L586.561 17.5826L586.114 16.1827L585.653 14.7875L586.846 13.9299L588.031 13.0601Z" fill="#505050"/>
<path d="M329.271 50.064L330.456 50.9338L331.649 51.7914L331.188 53.1866L330.741 54.5865L329.271 54.579L327.802 54.5865L327.355 53.1866L326.894 51.7914L328.087 50.9338L329.271 50.064Z" fill="#505050"/>
<path opacity="0.1" d="M256.536 248.467L257.721 247.597L258.914 246.74L258.453 245.345L258.006 243.945L256.536 243.952L255.067 243.945L254.62 245.345L254.159 246.74L255.352 247.597L256.536 248.467Z" fill="#505050"/>
<path d="M220.169 50.064L221.353 50.9338L222.546 51.7914L222.085 53.1866L221.638 54.5865L220.169 54.579L218.699 54.5865L218.252 53.1866L217.791 51.7914L218.984 50.9338L220.169 50.064Z" fill="#505050"/>
<path d="M296.746 132.778L299.021 134.449L301.312 136.096L300.426 138.776L299.568 141.464L296.746 141.45L293.924 141.464L293.065 138.776L292.179 136.096L294.471 134.449L296.746 132.778Z" fill="#7E7E7E"/>
<path opacity="0.3" d="M224.011 165.753L226.286 164.082L228.578 162.435L227.692 159.755L226.833 157.067L224.011 157.081L221.189 157.067L220.33 159.755L219.444 162.435L221.736 164.082L224.011 165.753Z" fill="#7E7E7E"/>
<path d="M187.643 132.778L189.918 134.449L192.21 136.096L191.324 138.776L190.466 141.464L187.643 141.45L184.821 141.464L183.963 138.776L183.077 136.096L185.369 134.449L187.643 132.778Z" fill="#7E7E7E"/>
<path opacity="0.1" d="M572.834 272.087L576.019 274.426L579.227 276.732L577.987 280.483L576.785 284.247L572.834 284.227L568.883 284.247L567.681 280.483L566.441 276.732L569.649 274.426L572.834 272.087Z" fill="#7E7E7E"/>
<path d="M500.099 26.4443L503.284 24.1055L506.492 21.7994L505.252 18.0479L504.051 14.2839L500.099 14.3041L496.148 14.2839L494.946 18.0479L493.706 21.7994L496.915 24.1055L500.099 26.4443Z" fill="#7E7E7E"/>
<path opacity="0.1" d="M463.732 272.087L466.916 274.426L470.125 276.732L468.885 280.483L467.683 284.247L463.732 284.227L459.78 284.247L458.579 280.483L457.339 276.732L460.547 274.426L463.732 272.087Z" fill="#7E7E7E"/>
<path opacity="0.1" d="M335.766 232.906L338.041 234.577L340.333 236.224L339.447 238.904L338.589 241.592L335.766 241.578L332.944 241.592L332.086 238.904L331.2 236.224L333.492 234.577L335.766 232.906Z" fill="#7E7E7E"/>
<path d="M263.032 65.625L265.306 63.9544L267.598 62.3072L266.712 59.6276L265.854 56.939L263.032 56.9534L260.209 56.939L259.351 59.6276L258.465 62.3072L260.757 63.9544L263.032 65.625Z" fill="#7E7E7E"/>
<path opacity="0.1" d="M226.664 232.906L228.939 234.577L231.23 236.224L230.344 238.904L229.486 241.592L226.664 241.578L223.842 241.592L222.983 238.904L222.097 236.224L224.389 234.577L226.664 232.906Z" fill="#7E7E7E"/>
<path d="M673.013 106.658L675.145 108.224L677.293 109.768L676.462 112.279L675.658 114.799L673.013 114.785L670.368 114.799L669.563 112.279L668.733 109.768L670.881 108.224L673.013 106.658Z" fill="#7E7E7E"/>
<path opacity="0.3" d="M600.278 191.873L602.41 190.307L604.558 188.764L603.727 186.252L602.923 183.732L600.278 183.746L597.633 183.732L596.828 186.252L595.998 188.764L598.146 190.307L600.278 191.873Z" fill="#7E7E7E"/>
<path d="M563.91 106.658L566.042 108.224L568.19 109.768L567.36 112.279L566.555 114.799L563.91 114.785L561.265 114.799L560.461 112.279L559.63 109.768L561.778 108.224L563.91 106.658Z" fill="#7E7E7E"/>
<path d="M566.355 63.124L568.487 64.6897L570.634 66.2334L569.804 68.7448L569 71.2646L566.355 71.251L563.71 71.2646L562.905 68.7448L562.075 66.2334L564.223 64.6897L566.355 63.124Z" fill="#7E7E7E"/>
<path opacity="0.3" d="M493.62 235.407L495.752 233.842L497.9 232.298L497.069 229.786L496.265 227.267L493.62 227.28L490.975 227.267L490.17 229.786L489.34 232.298L491.488 233.842L493.62 235.407Z" fill="#7E7E7E"/>
<path d="M457.252 63.124L459.384 64.6897L461.532 66.2334L460.702 68.7448L459.897 71.2646L457.252 71.251L454.607 71.2646L453.803 68.7448L452.972 66.2334L455.12 64.6897L457.252 63.124Z" fill="#7E7E7E"/>
<path d="M472.756 19.5903L474.888 21.156L477.036 22.6998L476.206 25.2111L475.402 27.7309L472.756 27.7173L470.111 27.7309L469.307 25.2111L468.477 22.6998L470.625 21.156L472.756 19.5903Z" fill="#7E7E7E"/>
<path opacity="0.1" d="M400.021 278.941L402.153 277.375L404.301 275.831L403.471 273.32L402.667 270.8L400.021 270.814L397.376 270.8L396.572 273.32L395.742 275.831L397.89 277.375L400.021 278.941Z" fill="#7E7E7E"/>
<path d="M363.654 19.5903L365.786 21.156L367.934 22.6998L367.103 25.2111L366.299 27.7309L363.654 27.7173L361.009 27.7309L360.204 25.2111L359.374 22.6998L361.522 21.156L363.654 19.5903Z" fill="#7E7E7E"/>
<path d="M437.929 97.9512L440.061 99.5169L442.209 101.061L441.379 103.572L440.574 106.092L437.929 106.078L435.284 106.092L434.48 103.572L433.65 101.061L435.797 99.5169L437.929 97.9512Z" fill="#7E7E7E"/>
<path opacity="0.3" d="M365.194 200.58L367.326 199.014L369.474 197.471L368.644 194.959L367.839 192.44L365.194 192.453L362.549 192.44L361.745 194.959L360.915 197.471L363.062 199.014L365.194 200.58Z" fill="#7E7E7E"/>
<path d="M328.827 97.9512L330.959 99.5169L333.106 101.061L332.276 103.572L331.472 106.092L328.827 106.078L326.182 106.092L325.377 103.572L324.547 101.061L326.695 99.5169L328.827 97.9512Z" fill="#7E7E7E"/>
<path opacity="0.1" d="M371.013 259.026L372.197 259.896L373.39 260.754L372.929 262.149L372.482 263.549L371.013 263.541L369.543 263.549L369.096 262.149L368.635 260.754L369.828 259.896L371.013 259.026Z" fill="#505050"/>
<path d="M298.278 39.5049L299.462 38.6351L300.655 37.7774L300.194 36.3822L299.747 34.9823L298.278 34.9899L296.808 34.9823L296.361 36.3822L295.9 37.7774L297.093 38.6351L298.278 39.5049Z" fill="#505050"/>
<path opacity="0.1" d="M261.91 259.026L263.095 259.896L264.288 260.754L263.827 262.149L263.38 263.549L261.91 263.541L260.441 263.549L259.994 262.149L259.533 260.754L260.726 259.896L261.91 259.026Z" fill="#505050"/>
<path d="M231.704 0L232.889 0.869831L234.082 1.72746L233.621 3.12267L233.174 4.52254L231.704 4.515L230.235 4.52254L229.788 3.12267L229.327 1.72746L230.52 0.869831L231.704 0Z" fill="#505050"/>
<path opacity="0.1" d="M158.969 298.531L160.154 297.661L161.347 296.804L160.886 295.409L160.439 294.009L158.969 294.016L157.5 294.009L157.053 295.409L156.592 296.804L157.785 297.661L158.969 298.531Z" fill="#505050"/>
<path d="M122.602 0L123.786 0.869831L124.979 1.72746L124.518 3.12267L124.071 4.52254L122.602 4.515L121.132 4.52254L120.685 3.12267L120.224 1.72746L121.417 0.869831L122.602 0Z" fill="#505050"/>
<path d="M625.142 0L626.326 0.869831L627.519 1.72746L627.058 3.12267L626.611 4.52254L625.142 4.515L623.672 4.52254L623.225 3.12267L622.764 1.72746L623.957 0.869831L625.142 0Z" fill="#505050"/>
<path opacity="0.1" d="M552.407 298.531L553.591 297.661L554.784 296.804L554.323 295.409L553.876 294.009L552.407 294.016L550.937 294.009L550.49 295.409L550.029 296.804L551.222 297.661L552.407 298.531Z" fill="#505050"/>
<path d="M516.039 0L517.223 0.869831L518.417 1.72746L517.955 3.12267L517.509 4.52254L516.039 4.515L514.57 4.52254L514.123 3.12267L513.661 1.72746L514.855 0.869831L516.039 0Z" fill="#505050"/>
<path d="M111.603 124.071L112.787 124.941L113.98 125.799L113.519 127.194L113.072 128.594L111.603 128.586L110.133 128.594L109.686 127.194L109.225 125.799L110.418 124.941L111.603 124.071Z" fill="#505050"/>
<path opacity="0.3" d="M38.8677 174.46L40.0521 173.59L41.2453 172.733L40.7841 171.337L40.3371 169.937L38.8677 169.945L37.3982 169.937L36.9513 171.337L36.49 172.733L37.6833 173.59L38.8677 174.46Z" fill="#505050"/>
<path d="M2.5 124.071L3.68439 124.941L4.87764 125.799L4.41638 127.194L3.96946 128.594L2.5 128.586L1.03054 128.594L0.583621 127.194L0.122359 125.799L1.31561 124.941L2.5 124.071Z" fill="#505050"/>
<path d="M172.549 89.2446L173.734 90.1145L174.927 90.9721L174.466 92.3673L174.019 93.7672L172.549 93.7596L171.08 93.7672L170.633 92.3673L170.172 90.9721L171.365 90.1145L172.549 89.2446Z" fill="#505050"/>
<path opacity="0.1" d="M99.8145 209.287L100.999 208.417L102.192 207.559L101.731 206.164L101.284 204.764L99.8145 204.772L98.345 204.764L97.8981 206.164L97.4368 207.559L98.6301 208.417L99.8145 209.287Z" fill="#505050"/>
<path d="M63.4468 89.2446L64.6312 90.1145L65.8244 90.9721L65.3632 92.3673L64.9162 93.7672L63.4468 93.7596L61.9773 93.7672L61.5304 92.3673L61.0691 90.9721L62.2624 90.1145L63.4468 89.2446Z" fill="#505050"/>
</svg>
