<svg width="40" height="40" viewBox="0 0 40 40" fill="none" xmlns="http://www.w3.org/2000/svg">
<path d="M32.5 12.5H27.5V8.75C27.5 6.76088 26.7098 4.85322 25.3033 3.4467C23.8968 2.04018 21.9891 1.25 20 1.25C18.0109 1.25 16.1032 2.04018 14.6967 3.4467C13.2902 4.85322 12.5 6.76088 12.5 8.75V12.5H7.5C6.83696 12.5 6.20107 12.7634 5.73223 13.2322C5.26339 13.7011 5 14.337 5 15V32.5C5 33.163 5.26339 33.7989 5.73223 34.2678C6.20107 34.7366 6.83696 35 7.5 35H32.5C33.163 35 33.7989 34.7366 34.2678 34.2678C34.7366 33.7989 35 33.163 35 32.5V15C35 14.337 34.7366 13.7011 34.2678 13.2322C33.7989 12.7634 33.163 12.5 32.5 12.5ZM15 8.75C15 7.42392 15.5268 6.15215 16.4645 5.21447C17.4021 4.27678 18.6739 3.75 20 3.75C21.3261 3.75 22.5979 4.27678 23.5355 5.21447C24.4732 6.15215 25 7.42392 25 8.75V12.5H15V8.75ZM28.75 30H11.25C10.9185 30 10.6005 29.8683 10.3661 29.6339C10.1317 29.3995 10 29.0815 10 28.75C10 28.4185 10.1317 28.1005 10.3661 27.8661C10.6005 27.6317 10.9185 27.5 11.25 27.5H28.75C29.0815 27.5 29.3995 27.6317 29.6339 27.8661C29.8683 28.1005 30 28.4185 30 28.75C30 29.0815 29.8683 29.3995 29.6339 29.6339C29.3995 29.8683 29.0815 30 28.75 30ZM28.75 25H11.25C10.9185 25 10.6005 24.8683 10.3661 24.6339C10.1317 24.3995 10 24.0815 10 23.75C10 23.4185 10.1317 23.1005 10.3661 22.8661C10.6005 22.6317 10.9185 22.5 11.25 22.5H28.75C29.0815 22.5 29.3995 22.6317 29.6339 22.8661C29.8683 23.1005 30 23.4185 30 23.75C30 24.0815 29.8683 24.3995 29.6339 24.6339C29.3995 24.8683 29.0815 25 28.75 25ZM28.75 20H11.25C10.9185 20 10.6005 19.8683 10.3661 19.6339C10.1317 19.3995 10 19.0815 10 18.75C10 18.4185 10.1317 18.1005 10.3661 17.8661C10.6005 17.6317 10.9185 17.5 11.25 17.5H28.75C29.0815 17.5 29.3995 17.6317 29.6339 17.8661C29.8683 18.1005 30 18.4185 30 18.75C30 19.0815 29.8683 19.3995 29.6339 19.6339C29.3995 19.8683 29.0815 20 28.75 20Z" fill="#ECEDEE"/>
</svg>
