<svg width="40" height="40" viewBox="0 0 40 40" fill="none" xmlns="http://www.w3.org/2000/svg">
<path d="M36.25 8.75V13.75C36.25 13.9158 36.1842 14.0747 36.0669 14.1919C35.9497 14.3092 35.7908 14.375 35.625 14.375H21.25V8.125C21.25 7.95924 21.3158 7.80027 21.4331 7.68306C21.5503 7.56585 21.7092 7.5 21.875 7.5H35C35.3315 7.5 35.6495 7.6317 35.8839 7.86612C36.1183 8.10054 36.25 8.41848 36.25 8.75ZM35.625 16.875H28.75V23.75H35.625C35.7908 23.75 35.9497 23.6842 36.0669 23.5669C36.1842 23.4497 36.25 23.2908 36.25 23.125V17.5C36.25 17.3342 36.1842 17.1753 36.0669 17.0581C35.9497 16.9408 35.7908 16.875 35.625 16.875ZM13.75 23.75H26.25V16.875H13.75V23.75ZM4.375 23.75H11.25V16.875H4.375C4.20924 16.875 4.05027 16.9408 3.93306 17.0581C3.81585 17.1753 3.75 17.3342 3.75 17.5V23.125C3.75 23.2908 3.81585 23.4497 3.93306 23.5669C4.05027 23.6842 4.20924 23.75 4.375 23.75ZM35.625 26.25H21.25V31.875C21.25 32.0408 21.3158 32.1997 21.4331 32.3169C21.5503 32.4342 21.7092 32.5 21.875 32.5H35C35.3315 32.5 35.6495 32.3683 35.8839 32.1339C36.1183 31.8995 36.25 31.5815 36.25 31.25V26.875C36.25 26.7092 36.1842 26.5503 36.0669 26.4331C35.9497 26.3158 35.7908 26.25 35.625 26.25ZM4.375 14.375H18.75V8.125C18.75 7.95924 18.6842 7.80027 18.5669 7.68306C18.4497 7.56585 18.2908 7.5 18.125 7.5H5C4.66848 7.5 4.35054 7.6317 4.11612 7.86612C3.8817 8.10054 3.75 8.41848 3.75 8.75V13.75C3.75 13.9158 3.81585 14.0747 3.93306 14.1919C4.05027 14.3092 4.20924 14.375 4.375 14.375ZM3.75 26.875V31.25C3.75 31.5815 3.8817 31.8995 4.11612 32.1339C4.35054 32.3683 4.66848 32.5 5 32.5H18.125C18.2908 32.5 18.4497 32.4342 18.5669 32.3169C18.6842 32.1997 18.75 32.0408 18.75 31.875V26.25H4.375C4.20924 26.25 4.05027 26.3158 3.93306 26.4331C3.81585 26.5503 3.75 26.7092 3.75 26.875Z" fill="#ECEDEE"/>
</svg>
