<svg width="50" height="50" viewBox="0 0 50 50" fill="none" xmlns="http://www.w3.org/2000/svg">
<path d="M40.625 7.8125H9.375C8.5462 7.8125 7.75134 8.14174 7.16529 8.72779C6.57924 9.31384 6.25 10.1087 6.25 10.9375V21.875C6.25 32.1719 11.2344 38.4121 15.416 41.834C19.9199 45.5176 24.4004 46.7695 24.5957 46.8203C24.8643 46.8934 25.1475 46.8934 25.416 46.8203C25.6113 46.7695 30.0859 45.5176 34.5957 41.834C38.7656 38.4121 43.75 32.1719 43.75 21.875V10.9375C43.75 10.1087 43.4208 9.31384 42.8347 8.72779C42.2487 8.14174 41.4538 7.8125 40.625 7.8125ZM23.4375 18.75C23.4375 18.3356 23.6021 17.9382 23.8951 17.6451C24.1882 17.3521 24.5856 17.1875 25 17.1875C25.4144 17.1875 25.8118 17.3521 26.1049 17.6451C26.3979 17.9382 26.5625 18.3356 26.5625 18.75V26.5625C26.5625 26.9769 26.3979 27.3743 26.1049 27.6674C25.8118 27.9604 25.4144 28.125 25 28.125C24.5856 28.125 24.1882 27.9604 23.8951 27.6674C23.6021 27.3743 23.4375 26.9769 23.4375 26.5625V18.75ZM25 35.9375C24.5365 35.9375 24.0833 35.8 23.6979 35.5425C23.3125 35.285 23.0121 34.9189 22.8347 34.4907C22.6573 34.0624 22.6109 33.5912 22.7013 33.1365C22.7917 32.6819 23.0149 32.2642 23.3427 31.9365C23.6705 31.6087 24.0881 31.3855 24.5428 31.295C24.9974 31.2046 25.4686 31.251 25.8969 31.4284C26.3252 31.6058 26.6912 31.9062 26.9488 32.2916C27.2063 32.6771 27.3438 33.1302 27.3438 33.5938C27.3438 34.2154 27.0968 34.8115 26.6573 35.251C26.2177 35.6906 25.6216 35.9375 25 35.9375Z" fill="#ECEDEE"/>
</svg>
