<svg width="50" height="50" viewBox="0 0 50 50" fill="none" xmlns="http://www.w3.org/2000/svg">
<path d="M24.6914 4.68761C13.8144 4.85362 4.92381 13.6896 4.68748 24.5724C4.60472 28.2328 5.51739 31.8471 7.32811 35.0294C7.39923 35.1538 7.5032 35.2562 7.62863 35.3255C7.75406 35.3948 7.89613 35.4282 8.0393 35.4222C8.18246 35.4161 8.3212 35.3708 8.44035 35.2912C8.55949 35.2116 8.65444 35.1008 8.71482 34.9708C10.1817 31.8553 10.9401 28.4535 10.9355 25.0099C10.9321 22.9006 11.4047 20.8178 12.3181 18.9166C13.2315 17.0154 14.5621 15.3448 16.2109 14.0294C16.3726 13.903 16.5577 13.8096 16.7555 13.7547C16.9533 13.6997 17.1599 13.6843 17.3637 13.7092C17.5675 13.7342 17.7643 13.799 17.943 13.9C18.1217 14.001 18.2788 14.1362 18.4053 14.298C18.5317 14.4597 18.6251 14.6447 18.68 14.8425C18.7349 15.0403 18.7504 15.247 18.7254 15.4507C18.7005 15.6545 18.6357 15.8514 18.5347 16.0301C18.4336 16.2088 18.2984 16.3658 18.1367 16.4923C16.8621 17.5163 15.8341 18.8138 15.1289 20.2889C14.4236 21.764 14.0592 23.3788 14.0625 25.0138C14.0676 29.7046 12.8239 34.3123 10.459 38.3634C10.3713 38.5122 10.3354 38.6859 10.357 38.8573C10.3786 39.0287 10.4563 39.1882 10.5781 39.3107C10.9687 39.7013 11.3769 40.0919 11.7988 40.4474C11.8853 40.52 11.9864 40.573 12.0954 40.6028C12.2043 40.6326 12.3184 40.6384 12.4298 40.6198C12.5411 40.6012 12.6472 40.5588 12.7406 40.4953C12.8339 40.4318 12.9125 40.3488 12.9707 40.2521C14.6997 37.3816 15.9276 34.2377 16.6015 30.9552C16.6842 30.5491 16.9247 30.1924 17.2703 29.9637C17.6159 29.7349 18.0382 29.6528 18.4443 29.7355C18.8504 29.8181 19.2071 30.0586 19.4358 30.4042C19.6646 30.7498 19.7467 31.1721 19.664 31.5782C18.9085 35.2821 17.5161 38.8269 15.5488 42.0548C15.4933 42.1466 15.4573 42.2488 15.4431 42.3551C15.4288 42.4613 15.4366 42.5694 15.4659 42.6726C15.4952 42.7757 15.5454 42.8717 15.6135 42.9546C15.6815 43.0375 15.7659 43.1055 15.8613 43.1544C16.3437 43.3985 16.8379 43.6251 17.3398 43.8321C17.5131 43.9064 17.7075 43.9155 17.887 43.8577C18.0664 43.7999 18.219 43.6791 18.3164 43.5177C21.6719 37.9441 23.4425 31.5605 23.4375 25.0548C23.4335 24.6537 23.5808 24.2658 23.8502 23.9686C24.1195 23.6714 24.4911 23.4867 24.8906 23.4513C25.1048 23.4362 25.3198 23.4655 25.5222 23.5373C25.7246 23.6091 25.91 23.7218 26.0669 23.8684C26.2237 24.015 26.3487 24.1924 26.434 24.3895C26.5193 24.5865 26.563 24.7991 26.5625 25.0138C26.5702 31.6562 24.875 38.1897 21.6387 43.9903C21.5764 44.1014 21.5422 44.2261 21.5391 44.3534C21.536 44.4807 21.564 44.6069 21.6208 44.7209C21.6776 44.8349 21.7615 44.9333 21.865 45.0075C21.9685 45.0817 22.0886 45.1294 22.2148 45.1466C22.8073 45.2286 23.4069 45.2846 24.0137 45.3146C24.1595 45.32 24.304 45.2844 24.4307 45.2119C24.5574 45.1394 24.6612 45.0329 24.7305 44.9044C27.9787 38.8284 29.6812 32.0461 29.6875 25.1564C29.6972 22.5685 27.6758 20.3732 25.0898 20.3243C24.4677 20.3124 23.8495 20.4244 23.2711 20.6539C22.6928 20.8834 22.1659 21.2258 21.7212 21.661C21.2765 22.0962 20.9229 22.6156 20.6811 23.1889C20.4392 23.7622 20.3139 24.3779 20.3125 25.0001C20.3096 25.3903 20.1627 25.7657 19.8998 26.0541C19.637 26.3425 19.2769 26.5236 18.8887 26.5626C18.6721 26.5819 18.4539 26.5558 18.248 26.486C18.0422 26.4161 17.8531 26.3041 17.693 26.157C17.5329 26.01 17.4052 25.8311 17.3182 25.6319C17.2311 25.4327 17.1866 25.2175 17.1875 25.0001C17.1874 23.9672 17.3922 22.9446 17.7899 21.9913C18.1877 21.0381 18.7705 20.1732 19.5046 19.4466C20.2388 18.7201 21.1098 18.1463 22.0671 17.7586C23.0244 17.3708 24.0492 17.1768 25.082 17.1876C29.3789 17.2325 32.832 20.9318 32.8105 25.2267C32.7915 31.5972 31.4257 37.8918 28.8027 43.6974C28.7431 43.8311 28.7223 43.9789 28.7426 44.1239C28.7629 44.2689 28.8236 44.4052 28.9176 44.5174C29.0117 44.6296 29.1354 44.7131 29.2746 44.7584C29.4138 44.8037 29.563 44.8089 29.7051 44.7735C30.3827 44.6129 31.0515 44.4173 31.709 44.1876C31.8114 44.1513 31.9052 44.0939 31.9842 44.0192C32.0632 43.9446 32.1258 43.8542 32.1679 43.754C33.0775 41.5986 33.8269 39.379 34.4101 37.1134C34.4614 36.9146 34.5514 36.7279 34.6748 36.5639C34.7983 36.3999 34.9529 36.2618 35.1297 36.1575C35.3065 36.0532 35.5022 35.9848 35.7054 35.9561C35.9087 35.9274 36.1157 35.939 36.3144 35.9903C36.5132 36.0416 36.6999 36.1316 36.864 36.2551C37.028 36.3785 37.1661 36.5331 37.2704 36.7099C37.3746 36.8867 37.4431 37.0824 37.4717 37.2856C37.5004 37.4889 37.4888 37.6959 37.4375 37.8946C37.2916 38.4637 37.1354 39.0301 36.9687 39.5939C36.9197 39.7562 36.9248 39.9301 36.9833 40.0892C37.0417 40.2484 37.1504 40.3843 37.2929 40.4762C37.4354 40.5682 37.6039 40.6113 37.773 40.5991C37.9422 40.5868 38.1027 40.5199 38.2305 40.4083C41.3978 37.6885 43.6502 34.0587 44.681 30.0131C45.7118 25.9675 45.471 21.7025 43.9913 17.7986C42.5117 13.8947 39.865 10.5416 36.4116 8.19562C32.9582 5.84962 28.8658 4.62472 24.6914 4.68761ZM38.6719 31.461C38.6244 31.8381 38.4411 32.1848 38.1564 32.4365C37.8716 32.6881 37.505 32.8274 37.125 32.8282C37.0597 32.8282 36.9945 32.8243 36.9297 32.8165C36.726 32.7912 36.5293 32.7259 36.3509 32.6245C36.1724 32.5232 36.0157 32.3876 35.8896 32.2256C35.7636 32.0637 35.6707 31.8785 35.6162 31.6806C35.5618 31.4827 35.5468 31.276 35.5722 31.0724C35.8213 29.0637 35.9466 27.0417 35.9472 25.0177C35.9431 22.1182 34.7894 19.3386 32.7392 17.2883C30.6889 15.238 27.9093 14.0843 25.0097 14.0802C24.5527 14.08 24.0961 14.108 23.6426 14.1642C23.231 14.216 22.8157 14.1022 22.4881 13.8478C22.1605 13.5934 21.9473 13.2193 21.8955 12.8077C21.8437 12.3962 21.9575 11.9809 22.2119 11.6533C22.4663 11.3256 22.8404 11.1125 23.2519 11.0607C25.2317 10.8144 27.2413 10.9916 29.1474 11.5806C31.0536 12.1695 32.8128 13.1568 34.3086 14.477C35.8044 15.7972 37.0026 17.4201 37.8239 19.2383C38.6451 21.0565 39.0706 23.0285 39.0722 25.0235C39.0718 27.1756 38.9381 29.3255 38.6719 31.461Z" fill="#ECEDEE"/>
</svg>
