<svg width="44" height="44" viewBox="0 0 44 44" fill="none" xmlns="http://www.w3.org/2000/svg">
<g clip-path="url(#clip0_1_902)">
<path d="M42.625 23.3751C42.2603 23.3751 41.9106 23.5199 41.6527 23.7778C41.3949 24.0357 41.25 24.3854 41.25 24.7501V27.5001H33.5689L30.4219 24.3479L39.0741 15.694C39.5894 15.1783 39.8789 14.4791 39.8789 13.7501C39.8789 13.021 39.5894 12.3218 39.0741 11.8062L32.5978 5.3282L29.4439 2.18117C29.1885 1.92574 28.8854 1.72312 28.5517 1.58488C28.218 1.44664 27.8603 1.37549 27.4991 1.37549C27.138 1.37549 26.7803 1.44664 26.4466 1.58488C26.1129 1.72312 25.8097 1.92574 25.5544 2.18117L0.501878 27.3179C0.262066 27.5584 0.0989123 27.8647 0.0330178 28.1979C-0.0328767 28.5311 0.00144331 28.8764 0.131644 29.1901C0.261845 29.5039 0.482088 29.772 0.764563 29.9606C1.04704 30.1493 1.37908 30.25 1.71875 30.2501H8.48547L14.5561 36.319C15.0718 36.8343 15.771 37.1238 16.5 37.1238C17.229 37.1238 17.9282 36.8343 18.4439 36.319L28.4728 26.2969L31.625 29.444C31.8794 29.7005 32.1823 29.9038 32.516 30.0422C32.8497 30.1806 33.2076 30.2512 33.5689 30.2501H41.25V33.0001C41.25 33.3647 41.3949 33.7145 41.6527 33.9723C41.9106 34.2302 42.2603 34.3751 42.625 34.3751C42.9897 34.3751 43.3394 34.2302 43.5973 33.9723C43.8551 33.7145 44 33.3647 44 33.0001V24.7501C44 24.3854 43.8551 24.0357 43.5973 23.7778C43.3394 23.5199 42.9897 23.3751 42.625 23.3751ZM27.5 4.12507L29.6811 6.30617L8.48547 27.5001H4.20407L27.5 4.12507Z" fill="#ECEDEE"/>
</g>
<defs>
<clipPath id="clip0_1_902">
<rect width="44" height="44" fill="white"/>
</clipPath>
</defs>
</svg>
