<svg width="1022" height="273" viewBox="0 0 1022 273" fill="none" xmlns="http://www.w3.org/2000/svg">
<path d="M511 0C793.218 0 1022 140.135 1022 313C1022 485.865 793.218 626 511 626C228.782 626 0 485.865 0 313C0 140.135 228.782 0 511 0ZM511 1C370.045 1 242.482 35.9976 150.19 92.5283C57.8823 149.069 1 227.047 1 313C1 398.953 57.8823 476.931 150.19 533.472C242.482 590.002 370.045 625 511 625C651.955 625 779.518 590.002 871.81 533.472C964.118 476.931 1021 398.953 1021 313C1021 227.047 964.118 149.069 871.81 92.5283C779.518 35.9976 651.955 1 511 1ZM510.999 66.5957C733.17 66.5957 913.275 176.915 913.275 313L913.268 314.594C911.868 449.946 732.302 559.404 510.999 559.404L508.397 559.399C288.29 558.546 110.125 449.415 108.73 314.594L108.723 313C108.723 176.915 288.828 66.5958 510.999 66.5957ZM510.999 67.5957C400.067 67.5957 299.686 95.139 227.069 139.618C154.436 184.108 109.723 245.436 109.723 313C109.723 380.564 154.436 441.891 227.069 486.381C299.686 530.86 400.067 558.404 510.999 558.404C621.931 558.404 722.313 530.86 794.93 486.381C867.563 441.891 912.275 380.563 912.275 313C912.275 245.436 867.563 184.108 794.93 139.618C722.313 95.1389 621.931 67.5957 510.999 67.5957ZM510.998 133.191C673.123 133.191 804.552 213.695 804.552 313L804.546 314.163C803.524 412.933 672.49 492.809 510.998 492.809L507.204 492.794C347.459 491.554 218.465 412.159 217.451 314.163L217.445 313C217.445 213.695 348.873 133.192 510.998 133.191ZM510.998 134.191C430.09 134.191 356.888 154.281 303.947 186.709C250.989 219.147 218.445 263.826 218.445 313C218.445 362.174 250.989 406.853 303.947 439.291C356.888 471.719 430.09 491.809 510.998 491.809C591.907 491.809 665.109 471.719 718.05 439.291C771.008 406.853 803.552 362.174 803.552 313C803.552 263.826 771.008 219.147 718.05 186.709C665.109 154.281 591.907 134.191 510.998 134.191ZM513.812 179.819C632.609 180.741 728.448 240.015 728.448 313C728.448 386.56 631.094 446.191 511.002 446.191L508.191 446.181C389.394 445.259 293.555 385.985 293.555 313C293.555 239.44 390.909 179.809 511.002 179.809L513.812 179.819ZM511.002 180.809C451.109 180.809 396.934 195.68 357.766 219.672C318.58 243.674 294.555 276.699 294.555 313C294.555 349.301 318.58 382.326 357.766 406.328C396.934 430.32 451.109 445.191 511.002 445.191C570.894 445.191 625.069 430.32 664.237 406.328C703.423 382.326 727.448 349.301 727.448 313C727.448 276.699 703.423 243.674 664.237 219.672C625.069 195.68 570.894 180.809 511.002 180.809ZM509.913 238.414C576.564 238.414 630.596 271.51 630.597 312.335L630.587 313.291C629.752 353.676 576.044 386.257 509.913 386.257L508.354 386.251C442.421 385.739 389.23 352.842 389.23 312.335C389.231 271.51 443.262 238.414 509.913 238.414ZM509.913 239.414C476.741 239.414 446.757 247.652 425.1 260.918C403.425 274.194 390.231 292.401 390.23 312.335C390.23 332.269 403.425 350.477 425.1 363.753C446.757 377.019 476.741 385.257 509.913 385.257C543.085 385.257 573.069 377.019 594.727 363.753C616.401 350.477 629.597 332.269 629.597 312.335C629.596 292.401 616.401 274.194 594.727 260.918C573.069 247.652 543.085 239.414 509.913 239.414ZM512.684 273.056C547.933 273.603 576.233 291.277 576.233 313C576.233 335.068 547.028 352.958 511 352.958L509.316 352.944C474.067 352.397 445.766 334.723 445.766 313C445.766 290.932 474.972 273.043 511 273.043L512.684 273.056ZM511 274.043C493.14 274.043 477.018 278.479 465.395 285.599C453.754 292.729 446.766 302.445 446.766 313C446.766 323.555 453.754 333.272 465.395 340.402C477.018 347.522 493.14 351.958 511 351.958C528.86 351.958 544.981 347.522 556.604 340.402C568.245 333.272 575.233 323.555 575.233 313C575.233 302.445 568.245 292.729 556.604 285.599C544.981 278.479 528.86 274.043 511 274.043Z" fill="#2E2E2E"/>
</svg>
