<svg width="318" height="111" viewBox="0 0 318 111" fill="none" xmlns="http://www.w3.org/2000/svg">
<path d="M161.411 0.0107422C274.898 0.891314 366.452 57.5151 366.452 127.237C366.452 197.508 273.45 254.474 158.727 254.475L156.041 254.464C42.5545 253.583 -49 196.959 -49 127.237C-49 56.9661 44.0026 0 158.727 0L161.411 0.0107422ZM158.727 0.40625C101.427 0.40625 49.571 14.633 12.0537 37.6133C-25.4704 60.5977 -48.5938 92.2964 -48.5938 127.237C-48.5938 162.178 -25.4704 193.877 12.0537 216.861C49.571 239.842 101.427 254.068 158.727 254.068C216.026 254.068 267.881 239.842 305.398 216.861C342.923 193.877 366.046 162.178 366.046 127.237C366.046 92.2964 342.923 60.5977 305.398 37.6133C267.881 14.6331 216.026 0.406331 158.727 0.40625ZM160.84 27.0801C250.18 27.7734 322.255 72.3507 322.255 127.238L322.242 128.532C321.11 183.255 248.335 227.403 158.727 227.403L156.612 227.396C67.9756 226.708 -3.66607 182.824 -4.78906 128.532L-4.80273 127.238C-4.80273 71.9184 68.412 27.0723 158.727 27.0723L160.84 27.0801ZM158.727 27.4785C113.632 27.4785 72.8248 38.6757 43.3057 56.7568C13.7799 74.8422 -4.39648 99.7732 -4.39648 127.238C-4.39606 154.703 13.7802 179.634 43.3057 197.719C72.8248 215.8 113.632 226.997 158.727 226.997C203.821 226.997 244.627 215.8 274.146 197.719C303.672 179.634 321.848 154.703 321.849 127.238C321.849 99.7733 303.672 74.8422 274.146 56.7568C244.627 38.6757 203.821 27.4786 158.727 27.4785ZM160.268 54.1494C225.462 54.6551 278.058 87.1841 278.058 127.237L278.048 128.182C277.222 168.115 224.116 200.331 158.726 200.331L157.184 200.325C91.989 199.82 39.3936 167.291 39.3936 127.237C39.3936 86.8687 92.8203 54.1436 158.726 54.1436L160.268 54.1494ZM158.726 54.5498C125.836 54.5498 96.0787 62.7164 74.5576 75.8984C53.0297 89.0848 39.7998 107.248 39.7998 127.237C39.7998 147.227 53.0297 165.39 74.5576 178.576C96.0787 191.758 125.836 199.925 158.726 199.925C191.616 199.925 221.372 191.758 242.894 178.576C264.422 165.39 277.651 147.227 277.651 127.237C277.651 107.248 264.421 89.0848 242.894 75.8984C221.372 62.7163 191.616 54.5498 158.726 54.5498ZM159.869 73.0986C208.161 73.4733 247.121 97.5683 247.121 127.237L247.114 127.938C246.502 157.517 207.164 181.381 158.728 181.381L157.585 181.376C109.673 181.004 70.9471 157.285 70.3398 127.938L70.333 127.237C70.333 97.3347 109.909 73.0938 158.728 73.0938L159.869 73.0986ZM158.728 73.5C134.381 73.5 112.358 79.5461 96.4355 89.2988C80.5063 99.0559 70.7393 112.481 70.7393 127.237C70.7393 141.994 80.5063 155.419 96.4355 165.176C112.358 174.929 134.381 180.975 158.728 180.975C183.074 180.974 205.096 174.928 221.019 165.176C236.948 155.419 246.715 141.994 246.715 127.237C246.715 112.481 236.948 99.0559 221.019 89.2988C205.096 79.5461 183.074 73.5002 158.728 73.5ZM158.284 96.917C185.379 96.917 207.343 110.371 207.343 126.967L207.339 127.355C206.999 143.772 185.167 157.017 158.284 157.017L157.019 157.007C130.72 156.599 109.564 143.514 109.229 127.355L109.226 126.967C109.226 110.371 131.19 96.917 158.284 96.917ZM158.284 97.3232C144.8 97.3233 132.611 100.673 123.807 106.065C114.996 111.462 109.632 118.864 109.632 126.967C109.632 135.07 114.996 142.471 123.807 147.868C132.611 153.261 144.8 156.609 158.284 156.609C171.769 156.609 183.958 153.261 192.762 147.868C201.573 142.471 206.936 135.07 206.937 126.967C206.937 118.864 201.573 111.462 192.762 106.065C183.958 100.673 171.769 97.3232 158.284 97.3232ZM159.411 110.999C173.74 111.222 185.244 118.407 185.244 127.237L185.235 127.656C184.872 136.433 173.143 143.48 158.727 143.48L158.042 143.475C143.94 143.256 132.574 136.294 132.217 127.656L132.208 127.237C132.208 118.267 144.081 110.994 158.727 110.994L159.411 110.999ZM158.727 111.4C151.466 111.4 144.913 113.204 140.188 116.099C135.456 118.997 132.614 122.947 132.614 127.237C132.614 131.528 135.456 135.478 140.188 138.376C144.913 141.27 151.466 143.074 158.727 143.074C165.986 143.074 172.54 141.27 177.265 138.376C181.996 135.478 184.838 131.528 184.838 127.237C184.838 122.947 181.997 118.997 177.265 116.099C172.54 113.205 165.987 111.4 158.727 111.4Z" fill="#343434"/>
</svg>
