<svg width="1440" height="1340" viewBox="0 0 1440 1340" fill="none" xmlns="http://www.w3.org/2000/svg">
<path d="M0 -55.5H1440M0 94.5H1440M0 244.5H1440M0 394.5H1440M0 544.5H1440M0 694.5H1440M0 844.5H1440M0 994.5H1440M0 1144.5H1440M0 1294.5H1440M44.5 1340V-100M194.5 1340V-100M344.5 1340V-100M494.5 1340V-100M644.5 1340V-100M794.5 1340V-100M944.5 1340V-100M1094.5 1340V-100M1244.5 1340V-100M1394.5 1340V-100" stroke="url(#paint0_linear_1_811)"/>
<defs>
<linearGradient id="paint0_linear_1_811" x1="720" y1="-510" x2="720" y2="620" gradientUnits="userSpaceOnUse">
<stop stop-color="#505050" stop-opacity="0.06"/>
<stop offset="1" stop-color="white" stop-opacity="0"/>
</linearGradient>
</defs>
</svg>
